HIERARCHY
ROOT Pelvis
{
	OFFSET 0.000000 0.941512 0.000000
	CHANNELS 6 Xposition Yposition Zposition Zrotation Yrotation Xrotation 
	JOINT Pelvis_L_Hip
	{
		OFFSET 0.000000 0.000000 0.000000
		CHANNELS 3 Zrotation Yrotation Xrotation
		JOINT L_Hip
		{
			OFFSET 0.062321 -0.080322 -0.016990
			CHANNELS 3 Zrotation Yrotation Xrotation
			JOINT L_Knee
			{
				OFFSET 0.093051 -0.381305 -0.029784
				CHANNELS 3 Zrotation Yrotation Xrotation
				JOINT L_Ankle
				{
					OFFSET -0.010371 -0.431000 -0.033614
					CHANNELS 3 Zrotation Yrotation Xrotation
					End Site #name: L_Foot
					{
						OFFSET 0.069299 -0.038670 0.119418
					}
				}
			}
		}
	}
	JOINT Pelvis_R_Hip
	{
		OFFSET 0.000000 0.000000 0.000000
		CHANNELS 3 Zrotation Yrotation Xrotation
		JOINT R_Hip
		{
			OFFSET -0.055334 -0.094904 -0.002373
			CHANNELS 3 Zrotation Yrotation Xrotation
			JOINT R_Knee
			{
				OFFSET -0.064207 -0.384370 -0.019592
				CHANNELS 3 Zrotation Yrotation Xrotation
				JOINT R_Ankle
				{
					OFFSET 0.025418 -0.419734 -0.065953
					CHANNELS 3 Zrotation Yrotation Xrotation
					End Site #name: R_Foot
					{
						OFFSET -0.057233 -0.039888 0.132134
					}
				}
			}
		}
	}
	JOINT Pelvis_Spine1
	{
		OFFSET 0.000000 0.000000 0.000000
		CHANNELS 3 Zrotation Yrotation Xrotation
		JOINT Spine1
		{
			OFFSET -0.005562 0.124093 -0.043360
			CHANNELS 3 Zrotation Yrotation Xrotation
			JOINT Spine2
			{
				OFFSET 0.012244 0.139499 0.029894
				CHANNELS 3 Zrotation Yrotation Xrotation
				JOINT Spine3
				{
					OFFSET -0.002556 0.056561 0.009225
					CHANNELS 3 Zrotation Yrotation Xrotation
					JOINT Spine3_Neck
					{
						OFFSET 0.000000 0.000000 0.000000
						CHANNELS 3 Zrotation Yrotation Xrotation
						JOINT Neck
						{
							OFFSET -0.005205 0.217920 -0.024551
							CHANNELS 3 Zrotation Yrotation Xrotation
							End Site #name: Head
							{
								OFFSET 0.002365 0.091850 0.046637
							}
						}
					}
					JOINT Spine3_L_Collar
					{
						OFFSET 0.000000 0.000000 0.000000
						CHANNELS 3 Zrotation Yrotation Xrotation
						JOINT L_Collar
						{
							OFFSET 0.072225 0.116603 -0.009480
							CHANNELS 3 Zrotation Yrotation Xrotation
							JOINT L_Shoulder
							{
								OFFSET 0.115937 -0.058643 -0.021018
								CHANNELS 3 Zrotation Yrotation Xrotation
								JOINT L_Elbow
								{
									OFFSET 0.021994 -0.254722 -0.024492
									CHANNELS 3 Zrotation Yrotation Xrotation
									End Site #name: L_Wrist
									{
										OFFSET 0.048810 -0.240214 0.103329
									}
								}
							}
						}
					}
					JOINT Spine3_R_Collar
					{
						OFFSET 0.000000 0.000000 0.000000
						CHANNELS 3 Zrotation Yrotation Xrotation
						JOINT R_Collar
						{
							OFFSET -0.073372 0.120704 -0.024611
							CHANNELS 3 Zrotation Yrotation Xrotation
							JOINT R_Shoulder
							{
								OFFSET -0.108089 -0.054969 -0.020504
								CHANNELS 3 Zrotation Yrotation Xrotation
								JOINT R_Elbow
								{
									OFFSET -0.033684 -0.260739 0.009889
									CHANNELS 3 Zrotation Yrotation Xrotation
									End Site #name: R_Wrist
									{
										OFFSET -0.067980 -0.232763 0.118463
									}
								}
							}
						}
					}
				}
			}
		}
	}
}
MOTION
Frames: 10
Frame Time: 0.041667
3.151145 0.950255 5.411565 -0.470583 14.769151 5.407045 0.000000 0.000000 0.000000 2.937113 -11.022010 -42.084402 -2.538904 -0.607240 27.385897 -1.712908 1.603790 3.487467 0.000000 0.000000 0.000000 0.949591 -4.712347 21.360454 -14.076861 6.802095 28.943828 15.832177 24.437903 15.229364 0.000000 0.000000 0.000000 -1.327919 1.418332 -14.261960 -29.352475 15.647486 40.424376 20.964911 24.592764 -31.462846 0.000000 0.000000 0.000000 -7.098867 1.962268 19.688637 0.000000 0.000000 0.000000 25.810329 10.138460 18.272399 -4.366525 3.852137 28.912016 3.107070 -30.367368 -84.714607 0.000000 0.000000 0.000000 -32.404034 26.700230 -21.975344 16.076057 -1.478214 10.045926 -7.638228 24.998246 -72.265064 
3.227402 0.908092 5.532166 2.339384 15.935818 1.304437 0.000000 0.000000 0.000000 1.980844 -11.338309 -41.161038 -18.748724 5.736758 45.855470 6.386907 8.162094 -6.296189 0.000000 0.000000 0.000000 -0.001535 -3.610333 17.824861 -14.620122 10.040308 51.323441 10.660065 18.534472 9.864184 0.000000 0.000000 0.000000 -5.543065 1.541782 -10.341660 -23.945310 12.983602 41.392345 18.722849 21.023853 -32.269499 0.000000 0.000000 0.000000 -5.527662 0.904879 22.704917 0.000000 0.000000 0.000000 21.749271 6.080513 12.265064 -9.799907 4.711464 24.258926 5.227393 -25.212951 -83.751439 0.000000 0.000000 0.000000 -26.565449 22.261105 -16.238246 19.003041 -2.672039 13.634112 -3.077442 25.174122 -62.562888 
3.294890 0.897257 5.633663 7.019459 17.100779 2.200480 0.000000 0.000000 0.000000 -7.769074 -10.961179 -32.452960 -19.672456 5.944639 48.128289 10.872421 7.701390 -14.683457 0.000000 0.000000 0.000000 -0.350200 -0.155520 0.951366 -14.127910 12.909052 76.053089 7.173682 14.526657 5.580316 0.000000 0.000000 0.000000 -8.420245 1.765057 -9.805707 -21.510536 12.433866 45.886872 14.062032 15.920599 -38.069782 0.000000 0.000000 0.000000 -2.423316 -0.787466 22.983942 0.000000 0.000000 0.000000 17.517329 -1.778832 3.726474 -7.466389 2.323496 13.256975 7.765830 -22.026443 -84.592886 0.000000 0.000000 0.000000 -21.175043 15.329117 -9.307745 22.760951 -4.483563 18.904595 -5.108579 20.442234 -60.566511 
3.357978 0.910791 5.723770 5.424161 18.256604 1.966413 0.000000 0.000000 0.000000 -12.017435 -8.238374 -23.761576 -15.932565 3.681819 48.435349 13.290857 4.879585 -19.966348 0.000000 0.000000 0.000000 4.395782 3.400380 -19.326481 -14.120963 15.114666 88.385029 5.708459 16.410761 1.791213 0.000000 0.000000 0.000000 -4.062632 1.198011 -6.468338 -14.729295 7.737138 40.925533 7.321893 8.610636 -37.191703 0.000000 0.000000 0.000000 -3.615153 -0.000079 25.724418 0.000000 0.000000 0.000000 20.063744 -7.157056 0.099347 -6.332430 0.392308 0.904272 8.006422 -23.113839 -87.341854 0.000000 0.000000 0.000000 -26.049460 7.717092 -3.028469 23.673083 -6.604029 25.309595 -2.891969 24.651783 -61.543693 
3.412210 0.946275 5.824715 3.279457 17.748660 -2.142010 0.000000 0.000000 0.000000 -13.952653 -2.001337 -7.871281 -9.441815 0.746662 40.617613 10.070731 -2.657106 -16.793273 0.000000 0.000000 0.000000 11.237070 6.294543 -29.231901 -15.550948 15.448107 80.351296 3.766478 10.942330 1.145456 0.000000 0.000000 0.000000 -3.063198 0.696448 -1.537480 -9.385636 4.871282 38.412347 6.013328 5.271608 -35.849996 0.000000 0.000000 0.000000 -4.242446 0.824553 24.942132 0.000000 0.000000 0.000000 23.411433 -12.909083 -4.200176 -6.620259 -0.079084 -2.448976 12.117081 -15.461803 -91.682492 0.000000 0.000000 0.000000 -28.589309 5.459973 -0.464889 17.132732 -6.697481 29.116109 0.410421 29.629023 -60.376156 
3.477736 0.992214 5.933163 -0.122457 16.864526 -4.453817 0.000000 0.000000 0.000000 -14.313398 3.289747 6.535967 -0.074701 -1.842633 29.525364 2.426372 -11.822160 -8.457249 0.000000 0.000000 0.000000 16.316188 7.982863 -31.775890 -16.256225 12.107418 59.463160 4.866102 9.605294 4.350045 0.000000 0.000000 0.000000 2.289426 -0.044558 -3.329994 -5.744467 2.995559 40.659546 3.600407 1.960800 -36.629315 0.000000 0.000000 0.000000 -4.887724 1.669522 22.709621 0.000000 0.000000 0.000000 24.925300 -16.201830 -7.166434 -7.384969 0.269165 -0.371073 14.097592 -11.014699 -93.162512 0.000000 0.000000 0.000000 -30.723076 4.236518 1.431597 14.657449 -6.611207 30.712186 2.316951 28.468248 -54.860117 
3.547106 1.021153 6.046735 -2.956467 15.935096 -3.872330 0.000000 0.000000 0.000000 -14.871425 6.748643 16.321155 8.680621 -3.022768 19.177698 -5.728636 -15.147435 1.455194 0.000000 0.000000 0.000000 18.607125 8.228956 -30.682988 -13.419390 6.883355 33.572337 10.100374 16.952965 10.201664 0.000000 0.000000 0.000000 7.025363 -0.016623 -9.104987 -3.837442 1.898062 44.384607 2.595312 0.407673 -39.810763 0.000000 0.000000 0.000000 -6.236953 2.795211 23.148307 0.000000 0.000000 0.000000 26.464539 -15.624507 -6.808728 -10.057474 0.193963 -1.119074 12.777155 -13.511885 -91.674735 0.000000 0.000000 0.000000 -35.019360 3.244286 3.744751 16.602793 -7.352039 32.547898 2.901152 24.811502 -48.751715 
3.614244 1.017518 6.159422 -2.910972 15.953638 -2.552900 0.000000 0.000000 0.000000 -16.191059 8.674498 21.046733 10.026707 -3.102874 17.619937 -5.040104 -13.059446 1.351515 0.000000 0.000000 0.000000 18.403049 7.822088 -29.397289 -9.606014 3.407221 15.231317 11.206724 18.419094 11.509803 0.000000 0.000000 0.000000 6.610170 0.798679 -14.904673 -2.678865 1.084929 47.049425 3.498128 0.582172 -40.692413 0.000000 0.000000 0.000000 -6.232263 2.876766 24.327121 0.000000 0.000000 0.000000 26.205566 -16.581591 -7.772987 -10.791209 0.022463 -2.035591 11.918304 -13.699395 -88.132434 0.000000 0.000000 0.000000 -35.087290 2.395076 4.762617 14.718274 -7.574813 35.029509 1.451133 21.213823 -45.928695 
3.675022 0.985825 6.267877 -1.258256 16.631183 -3.428547 0.000000 0.000000 0.000000 -16.244517 9.375685 23.310870 5.268044 -2.955495 25.594190 -0.623782 -7.952986 -2.710473 0.000000 0.000000 0.000000 16.947991 7.660318 -29.950751 -8.118631 3.218116 18.153922 10.844300 17.280087 11.629679 0.000000 0.000000 0.000000 4.577191 0.996847 -15.256195 -3.133169 1.305356 46.336576 4.456022 1.165048 -40.039887 0.000000 0.000000 0.000000 -4.841213 1.836155 23.732083 0.000000 0.000000 0.000000 24.719996 -17.238595 -8.371738 -11.755499 -0.045031 -2.471261 10.699629 -13.327743 -82.344330 0.000000 0.000000 0.000000 -32.739267 1.875142 4.507518 14.099944 -7.346067 34.523802 0.523005 16.127861 -39.081321 
3.731097 0.935265 6.366308 -0.164142 17.113182 -5.796551 0.000000 0.000000 0.000000 -12.040786 7.410370 20.811174 -8.178068 0.533854 41.175236 3.914319 3.449172 -4.386186 0.000000 0.000000 0.000000 16.045094 8.233947 -33.110053 -5.228403 3.104010 38.271744 7.357901 10.779767 9.074294 0.000000 0.000000 0.000000 3.878993 0.723761 -12.088408 -4.313962 2.025715 44.714938 5.162363 2.494168 -39.605789 0.000000 0.000000 0.000000 -4.273651 1.266856 23.958255 0.000000 0.000000 0.000000 21.730370 -16.923575 -8.127335 -12.117287 -0.207012 -3.190814 8.241289 -14.341805 -74.490547 0.000000 0.000000 0.000000 -29.552498 2.973099 2.488225 14.797641 -6.993058 32.355044 -0.834448 11.072995 -31.766969 
